<mxfile host="app.diagrams.net" agent="Mozilla/5.0 (Windows NT 10.0; Win64; x64) AppleWebKit/537.36 (KHTML, like Gecko) Chrome/139.0.0.0 Safari/537.36" version="28.0.7" pages="2">
  <diagram name="Indexes" id="dG3Pp9h3Y6wqt0aINJYJ">
    <mxGraphModel dx="1426" dy="838" grid="1" gridSize="10" guides="1" tooltips="1" connect="1" arrows="1" fold="1" page="1" pageScale="1" pageWidth="4681" pageHeight="3300" math="0" shadow="0">
      <root>
        <mxCell id="0" />
        <mxCell id="1" parent="0" />
        <mxCell id="2umozgm-Ceqt5AvZt1u1-1" value="" style="shape=cylinder3;whiteSpace=wrap;html=1;boundedLbl=1;backgroundOutline=1;size=15;" parent="1" vertex="1">
          <mxGeometry x="770" y="80.5" width="170" height="210" as="geometry" />
        </mxCell>
        <mxCell id="2umozgm-Ceqt5AvZt1u1-2" value="" style="shape=mxgraph.cisco.misc.page_icon;html=1;pointerEvents=1;dashed=0;fillColor=#036897;strokeColor=#ffffff;strokeWidth=2;verticalLabelPosition=bottom;verticalAlign=top;align=center;outlineConnect=0;" parent="1" vertex="1">
          <mxGeometry x="800" y="130.5" width="48" height="69" as="geometry" />
        </mxCell>
        <mxCell id="2umozgm-Ceqt5AvZt1u1-4" value="" style="shape=mxgraph.cisco.misc.page_icon;html=1;pointerEvents=1;dashed=0;fillColor=#036897;strokeColor=#ffffff;strokeWidth=2;verticalLabelPosition=bottom;verticalAlign=top;align=center;outlineConnect=0;" parent="1" vertex="1">
          <mxGeometry x="870" y="210.5" width="48" height="69" as="geometry" />
        </mxCell>
        <mxCell id="2umozgm-Ceqt5AvZt1u1-5" value="" style="shape=mxgraph.cisco.misc.page_icon;html=1;pointerEvents=1;dashed=0;fillColor=#036897;strokeColor=#ffffff;strokeWidth=2;verticalLabelPosition=bottom;verticalAlign=top;align=center;outlineConnect=0;" parent="1" vertex="1">
          <mxGeometry x="790" y="210.5" width="48" height="69" as="geometry" />
        </mxCell>
        <mxCell id="2umozgm-Ceqt5AvZt1u1-6" value="" style="shape=mxgraph.cisco.misc.page_icon;html=1;pointerEvents=1;dashed=0;fillColor=#036897;strokeColor=#ffffff;strokeWidth=2;verticalLabelPosition=bottom;verticalAlign=top;align=center;outlineConnect=0;" parent="1" vertex="1">
          <mxGeometry x="870" y="130.5" width="48" height="69" as="geometry" />
        </mxCell>
        <mxCell id="F3tVMV32XgSYqewY5M-P-1" value="" style="whiteSpace=wrap;html=1;aspect=fixed;" parent="1" vertex="1">
          <mxGeometry x="410" y="50" width="230" height="230" as="geometry" />
        </mxCell>
        <mxCell id="F3tVMV32XgSYqewY5M-P-2" value="" style="endArrow=classic;startArrow=classic;html=1;rounded=0;fontSize=12;startSize=8;endSize=8;curved=1;entryX=0;entryY=0.5;entryDx=0;entryDy=0;entryPerimeter=0;exitX=1.004;exitY=0.58;exitDx=0;exitDy=0;exitPerimeter=0;" parent="1" source="F3tVMV32XgSYqewY5M-P-1" target="2umozgm-Ceqt5AvZt1u1-1" edge="1">
          <mxGeometry width="50" height="50" relative="1" as="geometry">
            <mxPoint x="440" y="290.5" as="sourcePoint" />
            <mxPoint x="490" y="240.5" as="targetPoint" />
          </mxGeometry>
        </mxCell>
        <mxCell id="F3tVMV32XgSYqewY5M-P-3" value="" style="endArrow=classic;html=1;rounded=0;fontSize=12;startSize=8;endSize=8;curved=1;entryX=0;entryY=0.5;entryDx=0;entryDy=0;" parent="1" target="F3tVMV32XgSYqewY5M-P-1" edge="1">
          <mxGeometry width="50" height="50" relative="1" as="geometry">
            <mxPoint x="120" y="170.5" as="sourcePoint" />
            <mxPoint x="490" y="240.5" as="targetPoint" />
          </mxGeometry>
        </mxCell>
        <mxCell id="F3tVMV32XgSYqewY5M-P-4" value="SQL Query" style="edgeLabel;html=1;align=center;verticalAlign=middle;resizable=0;points=[];fontSize=12;" parent="F3tVMV32XgSYqewY5M-P-3" vertex="1" connectable="0">
          <mxGeometry x="-0.5174" y="-1" relative="1" as="geometry">
            <mxPoint as="offset" />
          </mxGeometry>
        </mxCell>
        <mxCell id="F3tVMV32XgSYqewY5M-P-5" value="&lt;div style=&quot;text-align: left;&quot;&gt;&lt;span style=&quot;background-color: transparent; color: light-dark(rgb(0, 0, 0), rgb(255, 255, 255));&quot;&gt;B-Tree Index&lt;/span&gt;&lt;/div&gt;&lt;div style=&quot;text-align: left;&quot;&gt;&lt;span style=&quot;background-color: transparent; color: light-dark(rgb(0, 0, 0), rgb(255, 255, 255));&quot;&gt;Hash Index&lt;/span&gt;&lt;/div&gt;&lt;div style=&quot;text-align: left;&quot;&gt;&lt;span style=&quot;background-color: transparent; color: light-dark(rgb(0, 0, 0), rgb(255, 255, 255));&quot;&gt;Geo spatial Index&lt;/span&gt;&lt;/div&gt;&lt;div style=&quot;text-align: left;&quot;&gt;&lt;span style=&quot;white-space: pre;&quot;&gt;&#x9;&lt;/span&gt;Geo Hashing&lt;br&gt;&lt;/div&gt;&lt;div style=&quot;text-align: left;&quot;&gt;&lt;span style=&quot;background-color: transparent; color: light-dark(rgb(0, 0, 0), rgb(255, 255, 255));&quot;&gt;&lt;span style=&quot;white-space: pre;&quot;&gt;&#x9;&lt;/span&gt;Quad Trees&lt;br&gt;&lt;/span&gt;&lt;/div&gt;&lt;div style=&quot;text-align: left;&quot;&gt;&lt;/div&gt;&lt;div style=&quot;text-align: left;&quot;&gt;&lt;span style=&quot;background-color: transparent; color: light-dark(rgb(0, 0, 0), rgb(255, 255, 255));&quot;&gt;&lt;span style=&quot;white-space: pre;&quot;&gt;&#x9;&lt;/span&gt;R-Trees&lt;br&gt;&lt;/span&gt;&lt;/div&gt;&lt;div style=&quot;text-align: left;&quot;&gt;&lt;span style=&quot;background-color: transparent; color: light-dark(rgb(0, 0, 0), rgb(255, 255, 255));&quot;&gt;Inverted Index&lt;/span&gt;&lt;/div&gt;&lt;div&gt;&lt;br&gt;&lt;/div&gt;" style="text;strokeColor=none;fillColor=none;html=1;align=center;verticalAlign=middle;whiteSpace=wrap;rounded=0;fontSize=16;" parent="1" vertex="1">
          <mxGeometry x="10" y="279.5" width="320" height="130" as="geometry" />
        </mxCell>
        <mxCell id="F3tVMV32XgSYqewY5M-P-6" value="" style="rounded=1;whiteSpace=wrap;html=1;" parent="1" vertex="1">
          <mxGeometry x="410" y="370.5" width="200" height="60" as="geometry" />
        </mxCell>
        <mxCell id="F3tVMV32XgSYqewY5M-P-15" value="" style="rounded=1;whiteSpace=wrap;html=1;" parent="1" vertex="1">
          <mxGeometry x="550" y="380.5" width="50" height="40" as="geometry" />
        </mxCell>
        <mxCell id="F3tVMV32XgSYqewY5M-P-16" value="" style="rounded=1;whiteSpace=wrap;html=1;" parent="1" vertex="1">
          <mxGeometry x="480" y="380.5" width="50" height="40" as="geometry" />
        </mxCell>
        <mxCell id="F3tVMV32XgSYqewY5M-P-17" value="" style="rounded=1;whiteSpace=wrap;html=1;" parent="1" vertex="1">
          <mxGeometry x="420" y="380.5" width="50" height="40" as="geometry" />
        </mxCell>
        <mxCell id="F3tVMV32XgSYqewY5M-P-18" value="" style="rounded=1;whiteSpace=wrap;html=1;" parent="1" vertex="1">
          <mxGeometry x="50" y="510.5" width="200" height="60" as="geometry" />
        </mxCell>
        <mxCell id="F3tVMV32XgSYqewY5M-P-19" value="" style="rounded=1;whiteSpace=wrap;html=1;" parent="1" vertex="1">
          <mxGeometry x="190" y="520.5" width="50" height="40" as="geometry" />
        </mxCell>
        <mxCell id="F3tVMV32XgSYqewY5M-P-20" value="" style="rounded=1;whiteSpace=wrap;html=1;" parent="1" vertex="1">
          <mxGeometry x="120" y="520.5" width="50" height="40" as="geometry" />
        </mxCell>
        <mxCell id="F3tVMV32XgSYqewY5M-P-21" value="" style="rounded=1;whiteSpace=wrap;html=1;" parent="1" vertex="1">
          <mxGeometry x="60" y="520.5" width="50" height="40" as="geometry" />
        </mxCell>
        <mxCell id="F3tVMV32XgSYqewY5M-P-22" value="" style="rounded=1;whiteSpace=wrap;html=1;" parent="1" vertex="1">
          <mxGeometry x="425" y="520.5" width="200" height="60" as="geometry" />
        </mxCell>
        <mxCell id="F3tVMV32XgSYqewY5M-P-23" value="" style="rounded=1;whiteSpace=wrap;html=1;" parent="1" vertex="1">
          <mxGeometry x="565" y="530.5" width="50" height="40" as="geometry" />
        </mxCell>
        <mxCell id="F3tVMV32XgSYqewY5M-P-24" value="" style="rounded=1;whiteSpace=wrap;html=1;" parent="1" vertex="1">
          <mxGeometry x="495" y="530.5" width="50" height="40" as="geometry" />
        </mxCell>
        <mxCell id="F3tVMV32XgSYqewY5M-P-25" value="" style="rounded=1;whiteSpace=wrap;html=1;" parent="1" vertex="1">
          <mxGeometry x="435" y="530.5" width="50" height="40" as="geometry" />
        </mxCell>
        <mxCell id="F3tVMV32XgSYqewY5M-P-26" value="" style="rounded=1;whiteSpace=wrap;html=1;" parent="1" vertex="1">
          <mxGeometry x="724" y="530.5" width="200" height="60" as="geometry" />
        </mxCell>
        <mxCell id="F3tVMV32XgSYqewY5M-P-27" value="" style="rounded=1;whiteSpace=wrap;html=1;" parent="1" vertex="1">
          <mxGeometry x="864" y="540.5" width="50" height="40" as="geometry" />
        </mxCell>
        <mxCell id="F3tVMV32XgSYqewY5M-P-28" value="" style="rounded=1;whiteSpace=wrap;html=1;" parent="1" vertex="1">
          <mxGeometry x="794" y="540.5" width="50" height="40" as="geometry" />
        </mxCell>
        <mxCell id="F3tVMV32XgSYqewY5M-P-29" value="" style="rounded=1;whiteSpace=wrap;html=1;" parent="1" vertex="1">
          <mxGeometry x="734" y="540.5" width="50" height="40" as="geometry" />
        </mxCell>
        <mxCell id="F3tVMV32XgSYqewY5M-P-30" value="" style="endArrow=classic;html=1;rounded=0;fontSize=12;startSize=8;endSize=8;curved=1;exitX=0;exitY=1;exitDx=0;exitDy=0;entryX=0.5;entryY=0;entryDx=0;entryDy=0;" parent="1" source="F3tVMV32XgSYqewY5M-P-6" target="F3tVMV32XgSYqewY5M-P-18" edge="1">
          <mxGeometry width="50" height="50" relative="1" as="geometry">
            <mxPoint x="440" y="290.5" as="sourcePoint" />
            <mxPoint x="490" y="240.5" as="targetPoint" />
          </mxGeometry>
        </mxCell>
        <mxCell id="F3tVMV32XgSYqewY5M-P-31" value="" style="endArrow=classic;html=1;rounded=0;fontSize=12;startSize=8;endSize=8;curved=1;entryX=0.625;entryY=0.083;entryDx=0;entryDy=0;entryPerimeter=0;" parent="1" target="F3tVMV32XgSYqewY5M-P-26" edge="1">
          <mxGeometry width="50" height="50" relative="1" as="geometry">
            <mxPoint x="520" y="430.5" as="sourcePoint" />
            <mxPoint x="280" y="550.5" as="targetPoint" />
          </mxGeometry>
        </mxCell>
        <mxCell id="F3tVMV32XgSYqewY5M-P-32" value="" style="endArrow=classic;html=1;rounded=0;fontSize=12;startSize=8;endSize=8;curved=1;exitX=0.545;exitY=0.95;exitDx=0;exitDy=0;entryX=0.5;entryY=0;entryDx=0;entryDy=0;exitPerimeter=0;" parent="1" source="F3tVMV32XgSYqewY5M-P-6" target="F3tVMV32XgSYqewY5M-P-22" edge="1">
          <mxGeometry width="50" height="50" relative="1" as="geometry">
            <mxPoint x="540" y="470.5" as="sourcePoint" />
            <mxPoint x="280" y="550.5" as="targetPoint" />
          </mxGeometry>
        </mxCell>
        <mxCell id="F3tVMV32XgSYqewY5M-P-33" value="" style="shape=mxgraph.cisco.misc.page_icon;html=1;pointerEvents=1;dashed=0;fillColor=#036897;strokeColor=#ffffff;strokeWidth=2;verticalLabelPosition=bottom;verticalAlign=top;align=center;outlineConnect=0;" parent="1" vertex="1">
          <mxGeometry x="536" y="610" width="48" height="69" as="geometry" />
        </mxCell>
        <mxCell id="F3tVMV32XgSYqewY5M-P-34" value="Inverted Index" style="text;strokeColor=none;fillColor=none;html=1;align=center;verticalAlign=middle;whiteSpace=wrap;rounded=0;fontSize=16;" parent="1" vertex="1">
          <mxGeometry x="55" y="890" width="60" height="30" as="geometry" />
        </mxCell>
        <mxCell id="F3tVMV32XgSYqewY5M-P-36" value="doc1 : B-Trees are fast and reliable&lt;div&gt;doc2 : Hash tables are fast but limited&lt;/div&gt;&lt;div&gt;doc3 : Some of they are fast&lt;/div&gt;" style="text;strokeColor=none;fillColor=none;html=1;align=center;verticalAlign=middle;whiteSpace=wrap;rounded=0;fontSize=16;" parent="1" vertex="1">
          <mxGeometry x="34" y="930" width="550" height="90" as="geometry" />
        </mxCell>
      </root>
    </mxGraphModel>
  </diagram>
  <diagram id="m8mgiEtrDWshmw4CuS87" name="DynamoDb">
    <mxGraphModel dx="1426" dy="838" grid="0" gridSize="10" guides="1" tooltips="1" connect="1" arrows="1" fold="1" page="1" pageScale="1" pageWidth="4681" pageHeight="3300" math="0" shadow="0">
      <root>
        <mxCell id="0" />
        <mxCell id="1" parent="0" />
        <mxCell id="P5GWC-yrLFK2BiGz-FQv-1" value="Tables : Collections of related data&lt;div&gt;Items : Individual records with unique primary key&lt;/div&gt;&lt;div&gt;Attributes : Actual data fields with each items&amp;nbsp;&lt;/div&gt;" style="text;strokeColor=none;fillColor=none;html=1;align=center;verticalAlign=middle;whiteSpace=wrap;rounded=0;fontSize=16;" parent="1" vertex="1">
          <mxGeometry x="592" y="213" width="518" height="30" as="geometry" />
        </mxCell>
        <mxCell id="P5GWC-yrLFK2BiGz-FQv-2" value="" style="rounded=1;whiteSpace=wrap;html=1;" parent="1" vertex="1">
          <mxGeometry x="773" y="533" width="120" height="38" as="geometry" />
        </mxCell>
        <mxCell id="P5GWC-yrLFK2BiGz-FQv-4" value="" style="rounded=1;whiteSpace=wrap;html=1;" parent="1" vertex="1">
          <mxGeometry x="1418" y="547" width="120" height="38" as="geometry" />
        </mxCell>
        <mxCell id="P5GWC-yrLFK2BiGz-FQv-5" value="" style="rounded=1;whiteSpace=wrap;html=1;" parent="1" vertex="1">
          <mxGeometry x="1262" y="542" width="120" height="38" as="geometry" />
        </mxCell>
        <mxCell id="P5GWC-yrLFK2BiGz-FQv-6" value="" style="rounded=1;whiteSpace=wrap;html=1;" parent="1" vertex="1">
          <mxGeometry x="1110" y="540" width="120" height="38" as="geometry" />
        </mxCell>
        <mxCell id="P5GWC-yrLFK2BiGz-FQv-7" value="" style="rounded=1;whiteSpace=wrap;html=1;" parent="1" vertex="1">
          <mxGeometry x="941" y="538" width="120" height="38" as="geometry" />
        </mxCell>
        <mxCell id="P5GWC-yrLFK2BiGz-FQv-8" value="" style="rounded=1;whiteSpace=wrap;html=1;" parent="1" vertex="1">
          <mxGeometry x="773" y="602" width="120" height="38" as="geometry" />
        </mxCell>
        <mxCell id="P5GWC-yrLFK2BiGz-FQv-9" value="" style="rounded=1;whiteSpace=wrap;html=1;" parent="1" vertex="1">
          <mxGeometry x="1418" y="616" width="120" height="38" as="geometry" />
        </mxCell>
        <mxCell id="P5GWC-yrLFK2BiGz-FQv-10" value="" style="rounded=1;whiteSpace=wrap;html=1;" parent="1" vertex="1">
          <mxGeometry x="1262" y="611" width="120" height="38" as="geometry" />
        </mxCell>
        <mxCell id="P5GWC-yrLFK2BiGz-FQv-11" value="" style="rounded=1;whiteSpace=wrap;html=1;" parent="1" vertex="1">
          <mxGeometry x="1110" y="609" width="120" height="38" as="geometry" />
        </mxCell>
        <mxCell id="P5GWC-yrLFK2BiGz-FQv-12" value="" style="rounded=1;whiteSpace=wrap;html=1;" parent="1" vertex="1">
          <mxGeometry x="941" y="607" width="120" height="38" as="geometry" />
        </mxCell>
        <mxCell id="P5GWC-yrLFK2BiGz-FQv-13" value="" style="rounded=1;whiteSpace=wrap;html=1;" parent="1" vertex="1">
          <mxGeometry x="773" y="670" width="120" height="38" as="geometry" />
        </mxCell>
        <mxCell id="P5GWC-yrLFK2BiGz-FQv-14" value="" style="rounded=1;whiteSpace=wrap;html=1;" parent="1" vertex="1">
          <mxGeometry x="1418" y="684" width="120" height="38" as="geometry" />
        </mxCell>
        <mxCell id="P5GWC-yrLFK2BiGz-FQv-15" value="" style="rounded=1;whiteSpace=wrap;html=1;" parent="1" vertex="1">
          <mxGeometry x="1262" y="679" width="120" height="38" as="geometry" />
        </mxCell>
        <mxCell id="P5GWC-yrLFK2BiGz-FQv-16" value="" style="rounded=1;whiteSpace=wrap;html=1;" parent="1" vertex="1">
          <mxGeometry x="1110" y="677" width="120" height="38" as="geometry" />
        </mxCell>
        <mxCell id="P5GWC-yrLFK2BiGz-FQv-17" value="" style="rounded=1;whiteSpace=wrap;html=1;" parent="1" vertex="1">
          <mxGeometry x="941" y="675" width="120" height="38" as="geometry" />
        </mxCell>
        <mxCell id="P5GWC-yrLFK2BiGz-FQv-18" value="" style="rounded=1;whiteSpace=wrap;html=1;" parent="1" vertex="1">
          <mxGeometry x="763" y="727" width="120" height="38" as="geometry" />
        </mxCell>
        <mxCell id="P5GWC-yrLFK2BiGz-FQv-19" value="" style="rounded=1;whiteSpace=wrap;html=1;" parent="1" vertex="1">
          <mxGeometry x="1408" y="741" width="120" height="38" as="geometry" />
        </mxCell>
        <mxCell id="P5GWC-yrLFK2BiGz-FQv-20" value="" style="rounded=1;whiteSpace=wrap;html=1;" parent="1" vertex="1">
          <mxGeometry x="1252" y="736" width="120" height="38" as="geometry" />
        </mxCell>
        <mxCell id="P5GWC-yrLFK2BiGz-FQv-21" value="" style="rounded=1;whiteSpace=wrap;html=1;" parent="1" vertex="1">
          <mxGeometry x="1100" y="734" width="120" height="38" as="geometry" />
        </mxCell>
        <mxCell id="P5GWC-yrLFK2BiGz-FQv-22" value="" style="rounded=1;whiteSpace=wrap;html=1;" parent="1" vertex="1">
          <mxGeometry x="931" y="732" width="120" height="38" as="geometry" />
        </mxCell>
        <mxCell id="P5GWC-yrLFK2BiGz-FQv-23" value="Partition Key: Unique identifier that determines item&#39;s physical storage lcoation thro hashing&lt;div&gt;Sort key: Secondary attribute that enables ordering and range queries within a parittion&lt;/div&gt;" style="text;strokeColor=none;fillColor=none;html=1;align=center;verticalAlign=middle;whiteSpace=wrap;rounded=0;fontSize=16;" parent="1" vertex="1">
          <mxGeometry x="1218" y="274" width="684" height="30" as="geometry" />
        </mxCell>
        <mxCell id="P5GWC-yrLFK2BiGz-FQv-24" value="" style="endArrow=none;html=1;rounded=0;fontSize=12;startSize=8;endSize=8;curved=1;" parent="1" edge="1">
          <mxGeometry width="50" height="50" relative="1" as="geometry">
            <mxPoint x="921" y="787" as="sourcePoint" />
            <mxPoint x="918" y="506" as="targetPoint" />
          </mxGeometry>
        </mxCell>
        <mxCell id="P5GWC-yrLFK2BiGz-FQv-25" value="Primary Key : Partition Key : sort key" style="text;strokeColor=none;fillColor=none;html=1;align=center;verticalAlign=middle;whiteSpace=wrap;rounded=0;fontSize=16;" parent="1" vertex="1">
          <mxGeometry x="1304" y="342" width="309" height="30" as="geometry" />
        </mxCell>
        <mxCell id="P5GWC-yrLFK2BiGz-FQv-26" value="" style="shape=table;startSize=0;container=1;collapsible=0;childLayout=tableLayout;fontSize=16;" parent="1" vertex="1">
          <mxGeometry x="1412" y="885" width="456" height="198" as="geometry" />
        </mxCell>
        <mxCell id="P5GWC-yrLFK2BiGz-FQv-27" value="" style="shape=tableRow;horizontal=0;startSize=0;swimlaneHead=0;swimlaneBody=0;strokeColor=inherit;top=0;left=0;bottom=0;right=0;collapsible=0;dropTarget=0;fillColor=none;points=[[0,0.5],[1,0.5]];portConstraint=eastwest;fontSize=16;" parent="P5GWC-yrLFK2BiGz-FQv-26" vertex="1">
          <mxGeometry width="456" height="66" as="geometry" />
        </mxCell>
        <mxCell id="P5GWC-yrLFK2BiGz-FQv-28" value="System&lt;span style=&quot;white-space: pre;&quot;&gt;&#x9;&lt;/span&gt;" style="shape=partialRectangle;html=1;whiteSpace=wrap;connectable=0;strokeColor=inherit;overflow=hidden;fillColor=none;top=0;left=0;bottom=0;right=0;pointerEvents=1;fontSize=16;" parent="P5GWC-yrLFK2BiGz-FQv-27" vertex="1">
          <mxGeometry width="152" height="66" as="geometry">
            <mxRectangle width="152" height="66" as="alternateBounds" />
          </mxGeometry>
        </mxCell>
        <mxCell id="P5GWC-yrLFK2BiGz-FQv-29" value="Partition Key" style="shape=partialRectangle;html=1;whiteSpace=wrap;connectable=0;strokeColor=inherit;overflow=hidden;fillColor=none;top=0;left=0;bottom=0;right=0;pointerEvents=1;fontSize=16;" parent="P5GWC-yrLFK2BiGz-FQv-27" vertex="1">
          <mxGeometry x="152" width="152" height="66" as="geometry">
            <mxRectangle width="152" height="66" as="alternateBounds" />
          </mxGeometry>
        </mxCell>
        <mxCell id="P5GWC-yrLFK2BiGz-FQv-30" value="Sort Key" style="shape=partialRectangle;html=1;whiteSpace=wrap;connectable=0;strokeColor=inherit;overflow=hidden;fillColor=none;top=0;left=0;bottom=0;right=0;pointerEvents=1;fontSize=16;" parent="P5GWC-yrLFK2BiGz-FQv-27" vertex="1">
          <mxGeometry x="304" width="152" height="66" as="geometry">
            <mxRectangle width="152" height="66" as="alternateBounds" />
          </mxGeometry>
        </mxCell>
        <mxCell id="P5GWC-yrLFK2BiGz-FQv-31" value="" style="shape=tableRow;horizontal=0;startSize=0;swimlaneHead=0;swimlaneBody=0;strokeColor=inherit;top=0;left=0;bottom=0;right=0;collapsible=0;dropTarget=0;fillColor=none;points=[[0,0.5],[1,0.5]];portConstraint=eastwest;fontSize=16;" parent="P5GWC-yrLFK2BiGz-FQv-26" vertex="1">
          <mxGeometry y="66" width="456" height="66" as="geometry" />
        </mxCell>
        <mxCell id="P5GWC-yrLFK2BiGz-FQv-32" value="Chat App" style="shape=partialRectangle;html=1;whiteSpace=wrap;connectable=0;strokeColor=inherit;overflow=hidden;fillColor=none;top=0;left=0;bottom=0;right=0;pointerEvents=1;fontSize=16;" parent="P5GWC-yrLFK2BiGz-FQv-31" vertex="1">
          <mxGeometry width="152" height="66" as="geometry">
            <mxRectangle width="152" height="66" as="alternateBounds" />
          </mxGeometry>
        </mxCell>
        <mxCell id="P5GWC-yrLFK2BiGz-FQv-33" value="Chat Id" style="shape=partialRectangle;html=1;whiteSpace=wrap;connectable=0;strokeColor=inherit;overflow=hidden;fillColor=none;top=0;left=0;bottom=0;right=0;pointerEvents=1;fontSize=16;" parent="P5GWC-yrLFK2BiGz-FQv-31" vertex="1">
          <mxGeometry x="152" width="152" height="66" as="geometry">
            <mxRectangle width="152" height="66" as="alternateBounds" />
          </mxGeometry>
        </mxCell>
        <mxCell id="P5GWC-yrLFK2BiGz-FQv-34" value="Message Id" style="shape=partialRectangle;html=1;whiteSpace=wrap;connectable=0;strokeColor=inherit;overflow=hidden;fillColor=none;top=0;left=0;bottom=0;right=0;pointerEvents=1;fontSize=16;" parent="P5GWC-yrLFK2BiGz-FQv-31" vertex="1">
          <mxGeometry x="304" width="152" height="66" as="geometry">
            <mxRectangle width="152" height="66" as="alternateBounds" />
          </mxGeometry>
        </mxCell>
        <mxCell id="P5GWC-yrLFK2BiGz-FQv-35" value="" style="shape=tableRow;horizontal=0;startSize=0;swimlaneHead=0;swimlaneBody=0;strokeColor=inherit;top=0;left=0;bottom=0;right=0;collapsible=0;dropTarget=0;fillColor=none;points=[[0,0.5],[1,0.5]];portConstraint=eastwest;fontSize=16;" parent="P5GWC-yrLFK2BiGz-FQv-26" vertex="1">
          <mxGeometry y="132" width="456" height="66" as="geometry" />
        </mxCell>
        <mxCell id="P5GWC-yrLFK2BiGz-FQv-36" value="E-Comm" style="shape=partialRectangle;html=1;whiteSpace=wrap;connectable=0;strokeColor=inherit;overflow=hidden;fillColor=none;top=0;left=0;bottom=0;right=0;pointerEvents=1;fontSize=16;" parent="P5GWC-yrLFK2BiGz-FQv-35" vertex="1">
          <mxGeometry width="152" height="66" as="geometry">
            <mxRectangle width="152" height="66" as="alternateBounds" />
          </mxGeometry>
        </mxCell>
        <mxCell id="P5GWC-yrLFK2BiGz-FQv-37" value="UserId" style="shape=partialRectangle;html=1;whiteSpace=wrap;connectable=0;strokeColor=inherit;overflow=hidden;fillColor=none;top=0;left=0;bottom=0;right=0;pointerEvents=1;fontSize=16;" parent="P5GWC-yrLFK2BiGz-FQv-35" vertex="1">
          <mxGeometry x="152" width="152" height="66" as="geometry">
            <mxRectangle width="152" height="66" as="alternateBounds" />
          </mxGeometry>
        </mxCell>
        <mxCell id="P5GWC-yrLFK2BiGz-FQv-38" value="Order Id" style="shape=partialRectangle;html=1;whiteSpace=wrap;connectable=0;strokeColor=inherit;overflow=hidden;fillColor=none;top=0;left=0;bottom=0;right=0;pointerEvents=1;fontSize=16;" parent="P5GWC-yrLFK2BiGz-FQv-35" vertex="1">
          <mxGeometry x="304" width="152" height="66" as="geometry">
            <mxRectangle width="152" height="66" as="alternateBounds" />
          </mxGeometry>
        </mxCell>
        <mxCell id="P5GWC-yrLFK2BiGz-FQv-53" value="Secondary Index" style="text;strokeColor=none;fillColor=none;html=1;align=center;verticalAlign=middle;whiteSpace=wrap;rounded=0;fontSize=16;" parent="1" vertex="1">
          <mxGeometry x="823" y="979" width="165" height="30" as="geometry" />
        </mxCell>
        <mxCell id="P5GWC-yrLFK2BiGz-FQv-54" value="Global Secondary Index : Diff Partition key from table to query by any attribute" style="text;strokeColor=none;fillColor=none;html=1;align=center;verticalAlign=middle;whiteSpace=wrap;rounded=0;fontSize=16;" parent="1" vertex="1">
          <mxGeometry x="743" y="1016" width="470" height="30" as="geometry" />
        </mxCell>
        <mxCell id="P5GWC-yrLFK2BiGz-FQv-55" value="Local Secondary Index: Same Partition Key as table but diff sort key" style="text;strokeColor=none;fillColor=none;html=1;align=center;verticalAlign=middle;whiteSpace=wrap;rounded=0;fontSize=16;" parent="1" vertex="1">
          <mxGeometry x="726" y="1063" width="449" height="30" as="geometry" />
        </mxCell>
        <mxCell id="P5GWC-yrLFK2BiGz-FQv-56" value="Chat Id" style="text;strokeColor=none;fillColor=none;html=1;align=center;verticalAlign=middle;whiteSpace=wrap;rounded=0;fontSize=16;" parent="1" vertex="1">
          <mxGeometry x="811" y="486" width="60" height="30" as="geometry" />
        </mxCell>
        <mxCell id="P5GWC-yrLFK2BiGz-FQv-57" value="Timestamp" style="text;strokeColor=none;fillColor=none;html=1;align=center;verticalAlign=middle;whiteSpace=wrap;rounded=0;fontSize=16;" parent="1" vertex="1">
          <mxGeometry x="1285" y="496" width="60" height="32" as="geometry" />
        </mxCell>
        <mxCell id="P5GWC-yrLFK2BiGz-FQv-58" value="UserId" style="text;strokeColor=none;fillColor=none;html=1;align=center;verticalAlign=middle;whiteSpace=wrap;rounded=0;fontSize=16;" parent="1" vertex="1">
          <mxGeometry x="1135" y="498" width="60" height="30" as="geometry" />
        </mxCell>
        <mxCell id="P5GWC-yrLFK2BiGz-FQv-59" value="Message Id" style="text;strokeColor=none;fillColor=none;html=1;align=center;verticalAlign=middle;whiteSpace=wrap;rounded=0;fontSize=16;" parent="1" vertex="1">
          <mxGeometry x="957" y="498" width="60" height="30" as="geometry" />
        </mxCell>
        <mxCell id="P5GWC-yrLFK2BiGz-FQv-61" value="attachments" style="text;strokeColor=none;fillColor=none;html=1;align=center;verticalAlign=middle;whiteSpace=wrap;rounded=0;fontSize=16;" parent="1" vertex="1">
          <mxGeometry x="1456" y="498" width="60" height="32" as="geometry" />
        </mxCell>
        <mxCell id="P5GWC-yrLFK2BiGz-FQv-62" value="Accessing Data&lt;div&gt;dynamodb.query(params,(err,data) =&amp;gt; console.log(data))&lt;/div&gt;&lt;div&gt;keyConditionExpression &#39;user_id&#39;&lt;/div&gt;&lt;div&gt;ExpressionAttributeValues&lt;/div&gt;&lt;div&gt;ScanIndexForward:false (ASC), True (desc)&lt;/div&gt;&lt;div&gt;&lt;br&gt;&lt;/div&gt;&lt;div&gt;&lt;br&gt;&lt;/div&gt;&lt;div&gt;Transactions&lt;/div&gt;&lt;div&gt;await dynamoDB.transactWrite({{}}]&lt;/div&gt;" style="text;strokeColor=none;fillColor=none;html=1;align=center;verticalAlign=middle;whiteSpace=wrap;rounded=0;fontSize=16;" parent="1" vertex="1">
          <mxGeometry x="747" y="1165" width="466" height="264" as="geometry" />
        </mxCell>
        <mxCell id="P5GWC-yrLFK2BiGz-FQv-63" value="Architecture&lt;div&gt;Scale through consistent hashing on Partition key&lt;/div&gt;&lt;div&gt;&lt;br&gt;&lt;/div&gt;&lt;div&gt;Fault Tolerance&lt;/div&gt;&lt;div&gt;Async Replication&lt;/div&gt;&lt;div&gt;Client --&amp;gt; Leader&amp;nbsp; --&amp;gt; Replica 1&lt;/div&gt;&lt;div&gt;&lt;span style=&quot;white-space: pre;&quot;&gt;&#x9;&lt;/span&gt;&lt;span style=&quot;white-space: pre;&quot;&gt;&#x9;&lt;/span&gt;&lt;span style=&quot;white-space: pre;&quot;&gt;&#x9;&lt;/span&gt;&lt;span style=&quot;white-space: pre;&quot;&gt;&#x9;&lt;/span&gt;Replica 2&lt;br&gt;&lt;/div&gt;&lt;div&gt;&lt;br&gt;&lt;/div&gt;&lt;div&gt;Eventual Consistency (default) Strong Consistency ( Leader)&lt;/div&gt;" style="text;strokeColor=none;fillColor=none;html=1;align=left;verticalAlign=middle;whiteSpace=wrap;rounded=0;fontSize=16;" parent="1" vertex="1">
          <mxGeometry x="692" y="1501" width="466" height="264" as="geometry" />
        </mxCell>
        <mxCell id="P5GWC-yrLFK2BiGz-FQv-64" value="DAX (DynamoDB Accelerator)&lt;div&gt;In-memory caching that provides microsecond response times for read heavy workloads with automatic read/write-through caching&lt;/div&gt;&lt;div&gt;&lt;br&gt;&lt;/div&gt;&lt;div&gt;DynamoDB Streams&lt;/div&gt;&lt;div&gt;Real-time change tracking of table modifications(inserts. updates deletes) to trigger downstream processing like lambda functions, replications&lt;/div&gt;&lt;div&gt;&lt;br&gt;&lt;/div&gt;&lt;div&gt;CDC&lt;/div&gt;&lt;div&gt;&lt;br&gt;&lt;/div&gt;&lt;div&gt;&lt;br&gt;&lt;/div&gt;" style="text;strokeColor=none;fillColor=none;html=1;align=left;verticalAlign=middle;whiteSpace=wrap;rounded=0;fontSize=16;" parent="1" vertex="1">
          <mxGeometry x="1345" y="1323" width="466" height="264" as="geometry" />
        </mxCell>
        <mxCell id="P5GWC-yrLFK2BiGz-FQv-65" value="&lt;div&gt;When should not use&lt;/div&gt;&lt;div&gt;Complex Query Patterns : DDB not optimized for complex joins and subqueries&lt;/div&gt;&lt;div&gt;Multi-table transactions : DDB has limit number of items&lt;/div&gt;&lt;div&gt;Data model complexity : Lots of GSI &amp;amp; LSI&lt;/div&gt;" style="text;strokeColor=none;fillColor=none;html=1;align=left;verticalAlign=middle;whiteSpace=wrap;rounded=0;fontSize=16;" parent="1" vertex="1">
          <mxGeometry x="1317" y="1590" width="466" height="264" as="geometry" />
        </mxCell>
      </root>
    </mxGraphModel>
  </diagram>
</mxfile>
